<svg width="32" height="32" viewBox="0 0 32 32" fill="none" xmlns="http://www.w3.org/2000/svg">
<g clip-path="url(#clip0_43_13)">
<path d="M16 0C12.8355 0 9.74207 0.938384 7.11088 2.69649C4.4797 4.45459 2.42894 6.95345 1.21793 9.87707C0.00693258 12.8007 -0.309921 16.0178 0.307443 19.1214C0.924806 22.2251 2.44866 25.0761 4.6863 27.3137C6.92394 29.5514 9.77487 31.0752 12.8786 31.6926C15.9823 32.3099 19.1993 31.9931 22.1229 30.7821C25.0466 29.5711 27.5454 27.5203 29.3035 24.8891C31.0616 22.2579 32 19.1645 32 16C31.9954 11.7579 30.3082 7.69095 27.3087 4.69136C24.3091 1.69177 20.2421 0.00458811 16 0ZM16 29.3333C13.3629 29.3333 10.7851 28.5513 8.5924 27.0863C6.39975 25.6212 4.69078 23.5388 3.68161 21.1024C2.67245 18.6661 2.4084 15.9852 2.92287 13.3988C3.43734 10.8124 4.70722 8.43661 6.57192 6.57191C8.43662 4.70721 10.8124 3.43733 13.3988 2.92286C15.9852 2.40839 18.6661 2.67244 21.1025 3.68161C23.5388 4.69078 25.6212 6.39974 27.0863 8.5924C28.5514 10.7851 29.3333 13.3629 29.3333 16C29.3295 19.535 27.9235 22.9242 25.4238 25.4238C22.9242 27.9234 19.535 29.3295 16 29.3333Z" fill="#FFFFFF"/>
<path d="M16 8C15.6464 8 15.3073 8.14048 15.0572 8.39052C14.8072 8.64057 14.6667 8.97971 14.6667 9.33333V15.1L10.172 17.916C9.87143 18.1038 9.65776 18.4033 9.57799 18.7486C9.49823 19.0939 9.5589 19.4568 9.74668 19.7573C9.93445 20.0579 10.2339 20.2716 10.5793 20.3514C10.9246 20.4311 11.2874 20.3704 11.588 20.1827L16.708 16.9827C16.9015 16.8615 17.0605 16.6926 17.17 16.4923C17.2795 16.292 17.3358 16.0669 17.3333 15.8387V9.33333C17.3333 8.97971 17.1929 8.64057 16.9428 8.39052C16.6928 8.14048 16.3536 8 16 8Z" fill="#FFFFFF"/>
</g>
<defs>
<clipPath id="clip0_43_13">
<rect width="32" height="32" fill="white"/>
</clipPath>
</defs>
</svg>
