<svg width="32" height="32" viewBox="0 0 32 32" fill="none" xmlns="http://www.w3.org/2000/svg">
<circle cx="16" cy="16" r="14.75" stroke="#926D5C" stroke-width="2.5"/>
<line x1="28.7759" y1="6.98006" x2="4.77588" y2="25.9801" stroke="#926D5C" stroke-width="2.5"/>
<g clip-path="url(#clip0_43_32)">
<path d="M5.24418 10.4108L9.41085 6.24418C9.56801 6.09238 9.77852 6.00839 9.99701 6.01029C10.2155 6.01218 10.4245 6.09982 10.579 6.25433C10.7335 6.40884 10.8212 6.61785 10.8231 6.83635C10.825 7.05484 10.741 7.26535 10.5892 7.42251L9.09501 8.91668L10.3333 10.1525C11.1337 9.56486 12.1176 9.28233 13.1078 9.35582C14.098 9.42931 15.0294 9.85398 15.7342 10.5533L20.7917 15.6133C21.3349 16.1537 21.7657 16.7964 22.0589 17.5043C22.3521 18.2122 22.5021 18.9713 22.5 19.7375V22.3208L24.7558 24.5775C24.8354 24.6544 24.8989 24.7463 24.9426 24.848C24.9863 24.9497 25.0093 25.059 25.0102 25.1697C25.0112 25.2803 24.9901 25.3901 24.9482 25.4925C24.9063 25.5949 24.8444 25.6879 24.7662 25.7662C24.6879 25.8444 24.5949 25.9063 24.4925 25.9482C24.3901 25.9901 24.2803 26.0112 24.1697 26.0102C24.059 26.0093 23.9497 25.9863 23.848 25.9426C23.7463 25.8989 23.6544 25.8354 23.5775 25.7558L21.3217 23.5H18.7383C17.9721 23.5021 17.2131 23.3521 16.5052 23.0589C15.7973 22.7657 15.1545 22.3349 14.6142 21.7917L9.55418 16.7317C8.85427 16.0277 8.4291 15.0967 8.35545 14.1068C8.28179 13.1168 8.56449 12.1331 9.15251 11.3333L7.91668 10.095L6.42251 11.5892C6.26535 11.741 6.05484 11.825 5.83635 11.8231C5.61785 11.8212 5.40884 11.7335 5.25433 11.579C5.09982 11.4245 5.01218 11.2155 5.01028 10.997C5.00839 10.7785 5.09238 10.568 5.24418 10.4108ZM10.7317 15.5533L15.7917 20.6133C16.1777 21.0014 16.6368 21.309 17.1424 21.5184C17.6481 21.7278 18.1902 21.8348 18.7375 21.8333H20.8333V19.7375C20.8331 19.4645 20.8066 19.1921 20.7542 18.9242L19.7542 19.9242C19.6773 20.0038 19.5854 20.0673 19.4837 20.1109C19.382 20.1546 19.2727 20.1776 19.162 20.1786C19.0514 20.1795 18.9416 20.1584 18.8392 20.1165C18.7368 20.0746 18.6438 20.0128 18.5655 19.9345C18.4873 19.8563 18.4254 19.7632 18.3835 19.6608C18.3416 19.5584 18.3205 19.4487 18.3215 19.338C18.3224 19.2274 18.3454 19.118 18.3891 19.0163C18.4328 18.9147 18.4963 18.8227 18.5758 18.7458L20.0267 17.295C19.9011 17.1177 19.7618 16.9505 19.61 16.795L18.75 15.9283L17.2558 17.4225C17.0987 17.5743 16.8882 17.6583 16.6697 17.6564C16.4512 17.6545 16.2422 17.5669 16.0877 17.4124C15.9332 17.2579 15.8455 17.0488 15.8436 16.8303C15.8417 16.6119 15.9257 16.4013 16.0775 16.2442L17.5717 14.75L16.25 13.4283L14.7558 14.9225C14.5987 15.0743 14.3882 15.1583 14.1697 15.1564C13.9512 15.1545 13.7422 15.0669 13.5877 14.9124C13.4332 14.7579 13.3455 14.5488 13.3436 14.3303C13.3417 14.1119 13.4257 13.9013 13.5775 13.7442L15.0717 12.25L14.5533 11.7317C14.077 11.2774 13.4441 11.0239 12.7858 11.0239C12.1276 11.0239 11.4947 11.2774 11.0183 11.7317L10.7317 12.0183C10.263 12.4872 9.99971 13.1229 9.99971 13.7858C9.99971 14.4488 10.263 15.0845 10.7317 15.5533Z" fill="#926D5C"/>
</g>
<defs>
<clipPath id="clip0_43_32">
<rect width="20" height="20" fill="white" transform="matrix(-1 0 0 1 25 6)"/>
</clipPath>
</defs>
</svg>
