<svg width="32" height="32" viewBox="0 0 32 32" fill="none" xmlns="http://www.w3.org/2000/svg">
<circle cx="16" cy="16" r="14.75" stroke="#926D5C" stroke-width="2.5"/>
<line x1="28.7759" y1="6.98006" x2="4.77588" y2="25.9801" stroke="#926D5C" stroke-width="2.5"/>
<g clip-path="url(#clip0_43_22)">
<path d="M13.9746 11.4096C14.6022 11.6964 14.8788 12.4385 14.592 13.0661C14.3052 13.6936 13.5631 13.9702 12.9355 13.6834C12.308 13.3967 12.0314 12.6546 12.3182 12.027C12.6049 11.3994 13.347 11.1228 13.9746 11.4096ZM16.5195 14.8631C16.2327 15.4907 16.5093 16.2327 17.1369 16.5195C17.7644 16.8063 18.5065 16.5297 18.7933 15.9021C19.0801 15.2746 18.8035 14.5325 18.1759 14.2457C17.5483 13.9589 16.8063 14.2355 16.5195 14.8631ZM15.1993 19.7571C14.9125 20.3847 15.1891 21.1268 15.8167 21.4136C16.4442 21.7003 17.1863 21.4238 17.4731 20.7962C17.7599 20.1686 17.4833 19.4265 16.8557 19.1397C16.2282 18.8529 15.4861 19.1295 15.1993 19.7571ZM17.8824 5.86557C18.3008 6.05676 18.4852 6.55149 18.294 6.96988L17.834 7.97643C18.226 8.23343 18.5812 8.53684 18.8937 8.8794L19.8142 8.25461C20.1952 7.99626 20.7133 8.09558 20.9716 8.47659C21.1415 8.72646 21.156 9.03546 21.0393 9.29089C20.978 9.42504 20.8804 9.54444 20.7489 9.63369L19.8182 10.2648C19.8847 10.4061 19.9461 10.5505 20.0012 10.6984L20.3219 11.5587L21.682 11.0524C22.1138 10.8914 22.5936 11.1107 22.7537 11.5421C22.834 11.7574 22.8196 11.9854 22.7309 12.1795C22.6423 12.3735 22.4793 12.5336 22.264 12.6138L20.9038 13.1202L21.592 14.9666L22.9514 14.4599C23.3824 14.2986 23.8622 14.5179 24.0232 14.9496C24.1034 15.165 24.089 15.393 24.0004 15.587C23.9117 15.781 23.7487 15.9411 23.5334 16.0214L22.174 16.528L22.4946 17.3883C22.5498 17.5363 22.5979 17.6856 22.6401 17.8359L23.7568 17.7039C24.2139 17.6499 24.6281 17.9766 24.6822 18.4337C24.7008 18.5916 24.6744 18.7435 24.6131 18.8777C24.496 19.1339 24.2525 19.324 23.9531 19.3595L22.8491 19.4899C22.8369 19.9535 22.767 20.4153 22.6388 20.8662L23.6454 21.3261C24.0638 21.5173 24.2482 22.0121 24.057 22.4304C23.8658 22.8488 23.3711 23.0332 22.9527 22.842L21.9529 22.3852C21.7004 22.7774 21.4027 23.1342 21.065 23.4481L21.657 24.306C21.8295 24.5561 21.8464 24.868 21.7286 25.1257C21.6684 25.2576 21.5729 25.3762 21.4437 25.4646C21.065 25.7258 20.5459 25.6307 20.2847 25.252L19.6879 24.3865C19.5306 24.4621 19.3689 24.5312 19.2033 24.5929C18.9659 24.6814 18.7263 24.7524 18.4862 24.8067L18.5608 25.9046C18.5707 26.0474 18.5438 26.1845 18.488 26.3065C18.3651 26.5756 18.1027 26.7708 17.7861 26.792C17.3274 26.8233 16.9296 26.4767 16.8986 26.0172L16.8243 24.9287C16.4351 24.8983 16.0519 24.8286 15.6811 24.7196L15.2226 25.7232C15.0306 26.1412 14.5359 26.3256 14.1175 26.1344C13.6991 25.9432 13.5147 25.4485 13.7059 25.0301L14.1676 24.0198C13.7886 23.7705 13.4381 23.4748 13.1261 23.137L12.2059 23.7674C11.826 24.0272 11.3076 23.9305 11.0471 23.5503C10.7865 23.1701 10.8829 22.6525 11.2642 22.3916L12.1924 21.7557C12.1224 21.6082 12.057 21.4565 11.9993 21.3L11.6787 20.4398L10.5512 20.86C10.1194 21.021 9.64042 20.8021 9.47949 20.3703C9.31856 19.9385 9.53746 19.4595 9.96924 19.2985L11.0967 18.8783L10.4086 17.0319L9.28106 17.4521C8.84928 17.6131 8.37026 17.3942 8.20933 16.9624C8.0484 16.5306 8.26729 16.0516 8.69907 15.8907L9.82657 15.4704L9.50594 14.6102C9.4479 14.4545 9.39691 14.2974 9.35371 14.1393L8.2357 14.2661C7.77848 14.3183 7.36534 13.9893 7.31315 13.5321C7.26055 13.0738 7.58959 12.6625 8.04715 12.6095L9.15254 12.4843C9.16607 12.0296 9.23595 11.576 9.36215 11.1334L8.35484 10.6731C7.93645 10.4819 7.75206 9.98716 7.94325 9.56878C8.13444 9.15039 8.62916 8.966 9.04755 9.15719L10.048 9.61438C10.2687 9.27178 10.5239 8.95593 10.8101 8.67257L10.144 7.78825C9.86788 7.42017 9.94093 6.8974 10.3079 6.62165C10.6756 6.34438 11.1983 6.41743 11.4745 6.78551L12.1566 7.6909C12.362 7.58414 12.5761 7.48863 12.7966 7.40707C12.9711 7.34204 13.1478 7.28625 13.3251 7.23902L13.2053 6.15172C13.1531 5.6945 13.4844 5.2824 13.9424 5.23242C14.3997 5.18209 14.8114 5.51224 14.8617 5.96952L14.9815 7.05682C15.433 7.07531 15.8812 7.14911 16.3198 7.27806L16.777 6.27757C16.9682 5.85919 17.4629 5.6748 17.8813 5.86598L17.8824 5.86557ZM18.4402 11.2815C18.073 10.2965 17.3442 9.51355 16.3891 9.07715C15.4341 8.64074 14.3651 8.60211 13.3801 8.96925C12.3951 9.33638 11.6121 10.0652 11.1757 11.0203C10.7393 11.9753 10.7003 13.045 11.0671 14.0289L13.5605 20.7188C14.3186 22.7511 16.5886 23.7884 18.6213 23.0314C19.6063 22.6643 20.3893 21.9354 20.826 20.9797C21.2628 20.0239 21.3014 18.9549 20.9339 17.9706L18.4402 11.2815Z" fill="#926D5C"/>
</g>
<defs>
<clipPath id="clip0_43_22">
<rect width="20" height="20" fill="white" transform="translate(2.74829 20.9391) rotate(-65.4412)"/>
</clipPath>
</defs>
</svg>
