<svg width="32" height="32" viewBox="0 0 32 32" fill="none" xmlns="http://www.w3.org/2000/svg">
<g clip-path="url(#clip0_37_59)">
<path d="M16 30.75C24.1462 30.75 30.75 24.1462 30.75 16C30.75 7.8538 24.1462 1.25 16 1.25C7.8538 1.25 1.25 7.8538 1.25 16C1.25 24.1462 7.8538 30.75 16 30.75Z" stroke="#926D5C" stroke-width="2.5"/>
<path d="M28.7754 6.97998L4.77539 25.98" stroke="#926D5C" stroke-width="2.5"/>
<path d="M10.1667 12.6665H21.8333V10.9998H10.1667V12.6665ZM10.1667 24.3332C9.70833 24.3332 9.31597 24.17 8.98958 23.8436C8.66319 23.5172 8.5 23.1248 8.5 22.6665V10.9998C8.5 10.5415 8.66319 10.1491 8.98958 9.82275C9.31597 9.49637 9.70833 9.33317 10.1667 9.33317H11V7.6665H12.6667V9.33317H19.3333V7.6665H21V9.33317H21.8333C22.2917 9.33317 22.684 9.49637 23.0104 9.82275C23.3368 10.1491 23.5 10.5415 23.5 10.9998V15.729C23.2361 15.604 22.9653 15.4998 22.6875 15.4165C22.4097 15.3332 22.125 15.2707 21.8333 15.229V14.3332H10.1667V22.6665H15.4167C15.5139 22.9721 15.6285 23.2637 15.7604 23.5415C15.8924 23.8193 16.0486 24.0832 16.2292 24.3332H10.1667ZM18.0521 23.9478C17.2396 23.1353 16.8333 22.1526 16.8333 20.9998C16.8333 19.8471 17.2396 18.8644 18.0521 18.0519C18.8646 17.2394 19.8472 16.8332 21 16.8332C22.1528 16.8332 23.1354 17.2394 23.9479 18.0519C24.7604 18.8644 25.1667 19.8471 25.1667 20.9998C25.1667 22.1526 24.7604 23.1353 23.9479 23.9478C23.1354 24.7603 22.1528 25.1665 21 25.1665C19.8472 25.1665 18.8646 24.7603 18.0521 23.9478ZM22.3958 22.979L22.9792 22.3957L21.4167 20.8332V18.4998H20.5833V21.1665L22.3958 22.979Z" fill="#926D5C"/>
</g>
<defs>
<clipPath id="clip0_37_59">
<rect width="32" height="32" fill="white"/>
</clipPath>
</defs>
</svg>
