<svg width="32" height="32" viewBox="0 0 32 32" fill="none" xmlns="http://www.w3.org/2000/svg">
<circle cx="16" cy="16" r="14.75" stroke="#926D5C" stroke-width="2.5"/>
<line x1="28.7759" y1="6.98006" x2="4.77588" y2="25.9801" stroke="#926D5C" stroke-width="2.5"/>
<path d="M21.0952 13.14L18.5002 12.1025V7.66667H19.3335V6H12.6668V7.66667H13.5002V12.1025L10.9052 13.14C10.4403 13.3243 10.0417 13.6444 9.76139 14.0585C9.48105 14.4726 9.33195 14.9616 9.33351 15.4617V26H22.6668V15.4617C22.6683 14.9616 22.5191 14.4727 22.2388 14.0586C21.9585 13.6445 21.56 13.3244 21.0952 13.14ZM21.0002 24.3333H11.0002V15.4617C10.9996 15.295 11.0493 15.132 11.1428 14.9941C11.2363 14.8561 11.3693 14.7495 11.5243 14.6883L15.1668 13.2308V7.66667H16.8335V13.2308L20.476 14.6875C20.6308 14.7493 20.7634 14.8561 20.8569 14.9942C20.9503 15.1322 21.0002 15.295 21.0002 15.4617V24.3333ZM12.6668 21.8333H19.3335V16.8333H12.6668V21.8333ZM14.3335 18.5H17.6668V20.1667H14.3335V18.5Z" fill="#926D5C"/>
</svg>
