<svg width="32" height="32" viewBox="0 0 32 32" fill="none" xmlns="http://www.w3.org/2000/svg">
<circle cx="16" cy="16" r="14.75" stroke="#926D5C" stroke-width="2.5"/>
<line x1="28.7759" y1="6.98006" x2="4.77588" y2="25.9801" stroke="#926D5C" stroke-width="2.5"/>
<g clip-path="url(#clip0_43_23)">
<path d="M24.1194 9.09498C23.5603 8.61915 22.8194 8.41415 22.0869 8.53331C21.9103 8.56165 21.7403 8.61081 21.5794 8.67665C21.2903 7.61581 20.3186 6.83248 19.1678 6.83248C18.7219 6.83248 18.3036 6.94998 17.9411 7.15581C17.4961 6.46165 16.7186 5.99915 15.8344 5.99915C14.6828 5.99915 13.7111 6.78165 13.4219 7.84331C13.2603 7.77748 13.0911 7.72831 12.9144 7.69915C12.1819 7.58081 11.4411 7.78498 10.8819 8.26081C10.3219 8.73665 10.0011 9.43081 10.0011 10.1658V17.4141L9.20442 16.67C8.19776 15.7325 6.61526 15.7858 5.67609 16.7908C4.73526 17.7975 4.78776 19.3825 5.78442 20.3166L8.52942 22.9633C10.5594 24.9208 13.2294 25.9983 16.0486 25.9983H17.5011C21.6361 25.9983 25.0011 22.6333 25.0011 18.4983V11C25.0011 10.2658 24.6794 9.57165 24.1194 9.09498ZM23.3336 18.5C23.3336 21.7166 20.7169 24.3333 17.5003 24.3333H16.0478C13.6628 24.3333 11.4028 23.4216 9.68526 21.7658L6.93192 19.1108C6.59609 18.7958 6.57859 18.2666 6.89275 17.93C7.20609 17.5958 7.73276 17.5783 8.06692 17.89L10.2653 19.9425C10.5086 20.1691 10.8628 20.2291 11.1661 20.0975C11.4703 19.965 11.6678 19.665 11.6678 19.3333V10.1666C11.6678 9.92165 11.7744 9.68998 11.9619 9.53165C12.1519 9.37081 12.3944 9.30498 12.6478 9.34498C13.0328 9.40831 13.3353 9.80831 13.3353 10.2558V14.3333C13.3353 14.7933 13.7086 15.1666 14.1686 15.1666C14.6286 15.1666 15.0019 14.7933 15.0019 14.3333V8.49998C15.0019 8.04081 15.3761 7.66665 15.8353 7.66665C16.2944 7.66665 16.6686 8.04081 16.6686 8.49998V14.3333C16.6686 14.7933 17.0419 15.1666 17.5019 15.1666C17.9619 15.1666 18.3353 14.7933 18.3353 14.3333V9.33331C18.3353 8.87415 18.7094 8.49998 19.1686 8.49998C19.6278 8.49998 20.0019 8.87415 20.0019 9.33331V14.3333C20.0019 14.7933 20.3753 15.1666 20.8353 15.1666C21.2953 15.1666 21.6686 14.7933 21.6686 14.3333V11.0891C21.6686 10.6408 21.9703 10.2408 22.3561 10.1783C22.6086 10.1391 22.8519 10.2033 23.0419 10.365C23.2286 10.5233 23.3361 10.755 23.3361 11V18.5H23.3336Z" fill="#926D5C"/>
</g>
<defs>
<clipPath id="clip0_43_23">
<rect width="20" height="20" fill="white" transform="translate(5 6)"/>
</clipPath>
</defs>
</svg>
